<svg xmlns="http://www.w3.org/2000/svg" xmlns:xlink="http://www.w3.org/1999/xlink" width="335.14" height="120.79" viewBox="0 0 335.14 120.79"><defs><style>.cls-1{fill:none;}.cls-2{isolation:isolate;}.cls-3{opacity:0.3;mix-blend-mode:multiply;}.cls-4{fill:#00adb6;}.cls-5{fill:#fff;}.cls-6{clip-path:url(#clip-path);}.cls-7{fill:#dcdddd;}.cls-8{fill:#9e9e9f;}</style><clipPath id="clip-path" transform="translate(0 0.26)"><rect class="cls-1" x="10.35" y="9.57" width="130.76" height="96.93"/></clipPath></defs><g class="cls-2"><g id="レイヤー_2" data-name="レイヤー 2"><g id="レイヤー_1-2" data-name="レイヤー 1"><g class="cls-3"><polygon class="cls-4" points="335 120.78 4 120.79 4.14 4.27 335.14 4.26 335 120.78"/></g><polygon class="cls-4" points="331 116.78 0 116.79 0.14 0.27 331.14 0.26 331 116.78"/><rect class="cls-5" x="0.03" y="0.27" width="150.77" height="116.51"/><g class="cls-6"><rect class="cls-7" x="1" y="-0.13" width="150.44" height="116.79" transform="translate(-0.1 0.4) rotate(-0.1)"/></g><path class="cls-8" d="M53.58,62.35a1.24,1.24,0,0,1,1.36,1.35,1.3,1.3,0,0,1-1.38,1.41H45.73c-3.46,0-4.31-1.18-4.84-1.9a14.92,14.92,0,0,1-1.32,1.55,1.56,1.56,0,0,1-1.17.63,1.71,1.71,0,0,1-1.6-1.75c0-.7.32-1,1.22-1.61.26-.21.72-.57,1.25-1V57.55c0-.14,0-.5-.34-.5h-.76c-.46,0-1.35,0-1.35-1.37s.7-1.4,1.35-1.4h1.52c2,0,2.35.36,2.35,2.35v3.54c0,2.18,2.45,2.18,3.21,2.18Zm-12.3-13c1.18,1.06,1.3,1.33,1.3,1.8A1.63,1.63,0,0,1,41,52.72c-.48,0-.55-.08-1.39-.89-.47-.46-1.31-1.18-2-1.75a1,1,0,0,1-.44-.85,1.6,1.6,0,0,1,1.44-1.56C39.48,47.67,40.49,48.6,41.28,49.32Zm12.22,3.1c.51,0,1.37.09,1.37,1.21,0,.91-.27,1.43-1.37,1.43H52.05v5.68c0,.74-.22,1.38-1.34,1.38s-1.58-.28-1.58-1.38V55.06H46.79v.38A12.3,12.3,0,0,1,46,60.09c-.72,1.69-1.24,1.69-1.6,1.69s-1.78-.34-1.78-1.46a1.69,1.69,0,0,1,.38-1c.45-.74,1-1.78,1-4.44V50.73c0-2.26,1.24-2.32,2.44-2.38a28.22,28.22,0,0,0,4.52-.53,8.12,8.12,0,0,1,1.88-.34,1.25,1.25,0,0,1,1.31,1.37c0,1.08-.67,1.19-2.22,1.42-1.79.25-2.21.32-4.56.49-.52,0-.52.27-.52.74v.92Z" transform="translate(0 0.26)"/><path class="cls-8" d="M73,62.33c0,2-.91,2.61-2.58,2.61H60.81c-1.69,0-2.6-.59-2.6-2.61V50.76c0-2,.91-2.58,2.6-2.58h9.56c1.65,0,2.58.55,2.58,2.58Zm-3-7.29v-3.4a.59.59,0,0,0-.64-.65H61.88a.58.58,0,0,0-.63.65V55Zm-8.66,2.75v3.69a.58.58,0,0,0,.63.64h7.39a.58.58,0,0,0,.64-.64V57.79Z" transform="translate(0 0.26)"/><path class="cls-8" d="M81.9,52.83A22.89,22.89,0,0,1,79,56.18a1.63,1.63,0,0,1-1,.47,1.93,1.93,0,0,1-1.79-1.84c0-.53.1-.61,1.86-2.28a15.73,15.73,0,0,0,3-4.1c.45-.84.66-1,1.25-1,.86,0,1.75.53,1.75,1.29S82.39,52.15,81.9,52.83Zm3.78,11.61c-1.27.1-6.92.4-7.47.4s-1.44,0-1.44-1.52.87-1.39,2.36-1.42a66.67,66.67,0,0,0,3.24-7.58c.35-.93.61-1.2,1.37-1.2s1.77.28,1.77,1.25a8,8,0,0,1-.8,2.3,45.93,45.93,0,0,1-2.45,5.15c2.11-.08,4.79-.25,6.52-.42-.35-.53-.46-.7-1.6-2.3a1.61,1.61,0,0,1-.38-1,1.68,1.68,0,0,1,1.71-1.49,1.23,1.23,0,0,1,1.06.5,29.48,29.48,0,0,1,2.53,3.49c1.31,2.13,1.62,2.62,1.62,3.33,0,.93-1,1.5-1.94,1.5s-1-.38-1.56-1.46C89.27,64.12,87.92,64.29,85.68,64.44Zm2.41-17c.69,0,1,.3,1.29.95a22.2,22.2,0,0,0,3.14,4.31C92.77,53,93.89,54,94,54.13a1.28,1.28,0,0,1,.29.81,1.86,1.86,0,0,1-1.66,1.77c-.53,0-1.1-.32-2.47-1.9-2.5-2.93-3.66-5.47-3.66-6C86.48,47.82,87.5,47.46,88.09,47.46Z" transform="translate(0 0.26)"/><path class="cls-8" d="M99.66,64.29a1.09,1.09,0,0,1-1.23,1.24c-1.05,0-1.41-.4-1.41-1.24v-14c0-1.77.83-2.26,2.26-2.26h3.46c1.5,0,2.26.55,2.26,2.26v2.26c0,1.71-.76,2.26-2.26,2.26H99.66Zm2.81-13.68v-.4a.33.33,0,0,0-.36-.36H100a.33.33,0,0,0-.36.36v.4Zm0,1.62H99.66V53h2.45a.32.32,0,0,0,.36-.35Zm7.2,6.65a1.16,1.16,0,1,1,0,2.31h-.74V64c0,.34,0,1.2-1.2,1.2s-1.34-.49-1.34-1.2V61.19h-1.7c-.32,2.4-1.71,4-2.56,4a1.51,1.51,0,0,1-1.5-1.4c0-.38.19-.57.49-.92a3.25,3.25,0,0,0,.91-1.67h-.77a1.16,1.16,0,1,1,0-2.31h.95V57.66h-.71a1,1,0,0,1-1.12-1.12,1,1,0,0,1,1.2-1.14h7.81a1,1,0,0,1,1.19,1.12,1,1,0,0,1-1.06,1.14h-.59v1.22Zm-3.28,0V57.66h-1.58v1.22Zm1.78-4.07c-1.37,0-2.24-.46-2.24-2.26V50.29c0-1.79.83-2.26,2.24-2.26h3.51c1.47,0,2.27.51,2.27,2.26V62.94c0,2-.35,2.49-3,2.49-.78,0-1.94,0-1.94-1.5,0-1.29.85-1.33,1.21-1.33h.73c.36,0,.39-.17.39-.57V54.81Zm.38-4.2h2.77v-.4a.33.33,0,0,0-.36-.36h-2a.33.33,0,0,0-.36.36Zm0,1.62v.41a.32.32,0,0,0,.36.35h2.41v-.76Z" transform="translate(0 0.26)"/></g></g></g></svg>