<svg xmlns="http://www.w3.org/2000/svg" width="176.97" height="33.89" viewBox="0 0 176.97 33.89"><defs><style>.cls-1,.cls-2{fill:#00adb6;}.cls-2{stroke:#00adb6;stroke-miterlimit:10;stroke-width:0.38px;}.cls-3{fill:#fff;}</style></defs><g id="レイヤー_2" data-name="レイヤー 2"><g id="レイヤー_1-2" data-name="レイヤー 1"><path class="cls-1" d="M1.94,2.67h.49c.3,0,.42.24.42.5s-.05.53-.42.53H1.94V9.34c0,.16,0,.47-.47.47S.94,9.67.94,9.34V3.7H.48A.45.45,0,0,1,0,3.19c0-.29.13-.52.48-.52H.94V.8A.41.41,0,0,1,1.41.33c.35,0,.53.11.53.47Zm.78,3.58c-.14,0-.47,0-.47-.48s.3-.49.47-.49h.51c0-.47,0-.49,0-.58a.43.43,0,0,1,.4-.2c.47,0,.45.32.43.78h.48a1,1,0,0,1,.77.19.86.86,0,0,1,.23.74,11.92,11.92,0,0,1-.32,2.87c-.21.61-.6.61-1.12.61-.28,0-.61,0-.61-.48,0-.09,0-.49.33-.49s.51,0,.6-.26a7,7,0,0,0,.27-1.88c0-.31-.07-.33-.38-.33H4A8.26,8.26,0,0,1,3.28,9c-.36.71-.48.73-.65.73a.48.48,0,0,1-.51-.45.66.66,0,0,1,.13-.37,5.17,5.17,0,0,0,.91-2.63Zm.66-4.16a.42.42,0,0,1-.49-.46.42.42,0,0,1,.49-.46H5.23c0-.09.08-.5.11-.59A.46.46,0,0,1,5.82.33c.32,0,.53.1.53.39a3.25,3.25,0,0,1-.06.45H7.68c.51,0,1,0,1,.91a5.52,5.52,0,0,1-.28,1.77c-.24.45-.58.45-1.43.45-.47,0-.56,0-.67,0a.47.47,0,0,1-.26-.45c0-.47.34-.47.58-.47.65,0,.72,0,.81-.07s.22-.69.22-.92-.15-.25-.4-.25H6.05a3.7,3.7,0,0,1-1.4,1.85,3.08,3.08,0,0,1-1.19.57.56.56,0,0,1-.53-.57c0-.22.13-.31.32-.41A3,3,0,0,0,5,2.09ZM6.26,6.25c-.15,0-.47,0-.47-.48s.24-.49.47-.49H6.7c0-.57,0-.78.45-.78s.46.28.45.78h.57c.29,0,.66,0,.84.34a1.61,1.61,0,0,1,.13.84A16.39,16.39,0,0,1,8.92,9c-.17.65-.52.65-1.11.65-.38,0-.74,0-.74-.52s.29-.46.4-.46c.33,0,.51,0,.6-.18a9.08,9.08,0,0,0,.2-2c0-.27-.08-.31-.34-.31H7.54A6.44,6.44,0,0,1,6.39,9.52.38.38,0,0,1,6,9.71a.51.51,0,0,1-.52-.45.6.6,0,0,1,.15-.35,5.59,5.59,0,0,0,1-2.66Z"/><path class="cls-1" d="M13.25,4.06c-.28,0-.54-.09-.52-.52a5.39,5.39,0,0,1-1.55.71.59.59,0,0,1-.51-.63c0-.33.2-.42.46-.52A8.32,8.32,0,0,0,14.35.88c.52-.52.6-.6,1-.6s.57.12,1,.6a8.88,8.88,0,0,0,3.25,2.26c.26.11.44.2.44.5a.59.59,0,0,1-.54.63,5.32,5.32,0,0,1-1.48-.7.44.44,0,0,1-.51.49Zm1.4,2.06a16.36,16.36,0,0,1-1.14,2.23c1.57-.06,1.83-.08,4.16-.23-.26-.3-.28-.33-.83-.9a.56.56,0,0,1-.22-.42.57.57,0,0,1,.56-.49c.22,0,.34.12.66.44a15.15,15.15,0,0,1,1.49,1.7c.28.38.36.51.36.68a.66.66,0,0,1-.65.55.41.41,0,0,1-.34-.18c-.05-.08-.29-.44-.35-.51-1.79.15-2.41.2-4.39.32-.37,0-2.18.12-2.44.12A.46.46,0,0,1,11,8.91a.49.49,0,0,1,.26-.47c.1,0,.93,0,1.11,0a12.27,12.27,0,0,0,1.12-2.27H11.4c-.31,0-.52-.11-.52-.52a.45.45,0,0,1,.52-.48h8c.32,0,.52.12.52.52a.45.45,0,0,1-.52.48Zm2.76-3a10.11,10.11,0,0,1-1.74-1.55c-.12-.15-.18-.2-.27-.2s-.14.06-.26.2a10,10,0,0,1-1.75,1.55Z"/><path class="cls-1" d="M22.53,1.08A.47.47,0,0,1,23,.88c.24,0,.6.1.6.45a3.68,3.68,0,0,1-.13.72,16.51,16.51,0,0,0-.34,3.36,10.4,10.4,0,0,0,.4,3.13.75.75,0,0,1,.05.26c0,.33-.35.46-.6.46a.5.5,0,0,1-.55-.46A13,13,0,0,1,22,5.28,15.32,15.32,0,0,1,22.53,1.08Zm6.3,3.67c0,.19,0,.49,0,.63a5.19,5.19,0,0,1-.69,2.87c-.19.31-.88,1.25-1.35,1.25a.66.66,0,0,1-.64-.58c0-.16,0-.21.5-.67.74-.75,1.1-1.61,1-3.48l0-.84C27.26,4,26,4,25.5,4c-.94,0-1.27,0-1.27-.55s.22-.55.62-.55h1.06c.79,0,1.29,0,1.72-.06l0-1.17c0-.5,0-.94.57-.94s.56.32.57.8l0,1.21c.19,0,1-.14,1.15-.14a.48.48,0,0,1,.49.55c0,.47-.22.53-1.6.67Z"/><path class="cls-1" d="M35.71,4.09a1.29,1.29,0,0,1,1.38,1.37c0,.34-.24,1.82-.24,2.12a.54.54,0,0,0,.59.59c.68,0,1.15-.63,1.44-1.25s.35-.71.61-.71a.54.54,0,0,1,.57.52c0,.3-.82,2.5-2.7,2.5a1.45,1.45,0,0,1-1.59-1.59c0-.32.23-1.73.23-2a.47.47,0,0,0-.53-.5,2.7,2.7,0,0,0-2.2,1.53,20.85,20.85,0,0,0-1,2c-.16.34-.29.47-.51.47a.57.57,0,0,1-.6-.5,1.39,1.39,0,0,1,.22-.6c.82-1.65,2.41-4.85,3.31-6.64.22-.43.35-.62.63-.62s.6.2.6.48c0,.11,0,.19-.38.84-.46.87-.95,1.81-1.43,2.76A2.37,2.37,0,0,1,35.71,4.09Z"/><path class="cls-1" d="M42.38,1.24A.48.48,0,0,1,42.9.88c.06,0,.56,0,.56.46a2.06,2.06,0,0,1-.07.46A19.77,19.77,0,0,0,43,5.61a11.66,11.66,0,0,0,.32,2.89,3.13,3.13,0,0,1,0,.36c0,.33-.38.41-.58.41a.48.48,0,0,1-.53-.36,11.62,11.62,0,0,1-.35-3.24A20.15,20.15,0,0,1,42.38,1.24ZM48.21,3.6c.2,0,1.08-.12,1.26-.12.35,0,.46.28.46.54,0,.45-.17.5-1.67.6l.08,1.7c.66.23,1.93.78,1.93,1.26a.55.55,0,0,1-.49.57c-.12,0-.23-.05-.5-.22a6.56,6.56,0,0,0-.93-.49,3.31,3.31,0,0,1-.14.88,1.73,1.73,0,0,1-1.79.95c-1.19,0-2.2-.6-2.2-1.68,0-.76.54-1.62,2.16-1.62a4.51,4.51,0,0,1,.87.08l-.06-1.37c-.57,0-1.24,0-1.93,0s-1.08,0-1.08-.52.41-.52.57-.52c.66,0,1.79,0,2.4,0l0-1.22c-.51,0-1.1,0-1.7,0s-.9,0-.9-.51.43-.51.65-.51c1.6,0,1.77,0,2.29,0,.15,0,.8-.05.9,0a1.38,1.38,0,0,1,2.76,0,1.38,1.38,0,0,1-2.47.84c-.12.09-.2.1-.47.12ZM46.29,6.9c-.76,0-1.09.32-1.09.69s.6.74,1.17.74c.92,0,.92-.55.93-1.27A3.22,3.22,0,0,0,46.29,6.9ZM49,1.43a.74.74,0,1,0,.74-.74A.74.74,0,0,0,49,1.43Z"/><path class="cls-1" d="M55.85,5.93a.52.52,0,0,1-.42.32c-.2,0-.26-.08-.78-.77V9.26c0,.37-.15.52-.54.52a.45.45,0,0,1-.49-.52V6.05c-.59.58-.73.62-.9.62a.55.55,0,0,1-.5-.57c0-.24,0-.27.62-.76a5.51,5.51,0,0,0,1.74-2.29c0-.16-.18-.16-.27-.16H52.84c-.36,0-.51-.15-.51-.51a.44.44,0,0,1,.51-.47h.78v-1c0-.4.18-.53.55-.53s.48.3.48.52v1h.21c.49,0,.81.24.81.69a4,4,0,0,1-.74,1.84c.24.31.49.59.59.7.3.3.33.34.37.45C56,5,56.61,5,56.85,5h3.48c.71,0,1,.26,1,1V8.58c0,.76-.31,1-1,1H56.85c-.68,0-1-.24-1-1Zm.2-4.37c-.17,0-.51,0-.51-.45s.2-.46.51-.46h5.14c.17,0,.51,0,.51.46s-.27.45-.51.45Zm5,2.06c0,.73-.22.91-1,.91h-3c-.72,0-1-.17-1-.91V2.94c0-.74.24-.91,1-.91h3c.7,0,1,.16,1,.91Zm-4.24,3.2h1.29v-1h-1a.24.24,0,0,0-.28.28Zm1.29,1.89V7.56H56.83v.88c0,.19.1.27.28.27Zm2-5.64a.24.24,0,0,0-.28-.28H57.4c-.24,0-.28.14-.28.28v.4c0,.16.06.28.28.28h2.42a.24.24,0,0,0,.28-.28Zm.26,3.75V6.07a.24.24,0,0,0-.28-.28H59v1Zm0,.74H59V8.71h1c.16,0,.28-.05.28-.27Z"/><path class="cls-1" d="M65.56,8.42V7h-.7c-.72,0-1-.27-1-1V2.15c0-.75.3-1,1-1h1.88c0-.08.15-.48.18-.56S67,.35,67.4.35s.6.08.6.33a1.4,1.4,0,0,1-.14.47h2.38c.68,0,1,.23,1,1V3.41c0,.78-.33,1-1,1H64.92V4.9h7c.26,0,.42.1.42.38a.36.36,0,0,1-.42.39h-7v.21a.24.24,0,0,0,.28.28h5.7c.59,0,1.11,0,1.11.88a6.64,6.64,0,0,1-.38,2.08c-.3.55-.81.55-1.59.55,0,0-.49,0-.69,0S69,9.25,69,9.17c0-.46.33-.47.46-.47h.78a.51.51,0,0,0,.55-.34A5,5,0,0,0,71,7.27C71,7,70.8,7,70.54,7h-4V8.42h1.11A.25.25,0,0,0,68,8.15V7.6c0-.35.18-.46.55-.46s.49.34.49.48v.66c0,.88-.45,1-1,1H64.1c-.71,0-1-.26-1-1V7.56c0-.19,0-.48.53-.48s.52.33.52.48v.59c0,.16.06.27.28.27ZM64.92,2.5h5.29V2.22c0-.19-.09-.28-.27-.28H65.2a.25.25,0,0,0-.28.28Zm5.29.63H64.92v.56h5c.16,0,.27-.07.27-.28Z"/><path class="cls-1" d="M74.76,4.75a.45.45,0,0,1-.52-.51.46.46,0,0,1,.52-.52h2.89V2.5H74A.45.45,0,0,1,73.49,2c0-.51.35-.52.52-.52h3.64V.81c0-.28.15-.45.5-.45s.59.07.59.45v.66h3.67a.46.46,0,0,1,.52.51c0,.48-.31.52-.52.52H78.74V3.72h1.5c.66,0,1.11.16,1.11.77,0,1-1.38,2.48-2.15,3.09a10.6,10.6,0,0,0,3.2,1,.45.45,0,0,1,.45.44s0,.62-.56.62a10.44,10.44,0,0,1-4.07-1.38,11.8,11.8,0,0,1-4.07,1.39A.58.58,0,0,1,73.58,9c0-.38.34-.45.52-.47a11,11,0,0,0,3.17-1c-.71-.6-1.69-1.66-1.69-2A.56.56,0,0,1,76.16,5c.24,0,.26,0,.74.65A6.06,6.06,0,0,0,78.23,7,5.15,5.15,0,0,0,80,4.91c0-.16-.17-.16-.31-.16Z"/><path class="cls-1" d="M86.46,1.43V.79c0-.35.22-.44.54-.44s.48.21.48.44v.64H89a.45.45,0,0,1,.5.47.44.44,0,0,1-.5.46h-.21c-.13.64-.2.87-.44,1.76h.88c.19,0,.47,0,.47.47s-.33.47-.47.47H84.75c-.18,0-.46,0-.46-.47s.33-.47.45-.47h.8a8.21,8.21,0,0,0-.33-1.76H85a.44.44,0,0,1-.49-.47A.44.44,0,0,1,85,1.43ZM88,5.86c.91,0,1.14.23,1.14,1.14V8.46c0,.89-.22,1.13-1.14,1.13h-2c-.91,0-1.15-.23-1.15-1.13V7c0-.91.23-1.14,1.15-1.14Zm.16,1.25a.32.32,0,0,0-.36-.36H86.15a.32.32,0,0,0-.36.36V8.33a.32.32,0,0,0,.36.36h1.63c.2,0,.36-.07.36-.36Zm-2-4.75c.25,1.19.27,1.33.33,1.76h.89a12.85,12.85,0,0,0,.39-1.76Zm4.69,6.93a.44.44,0,0,1-.48.51c-.38,0-.54-.15-.54-.51V1.7c0-.82.19-1,1-1h1.39c.52,0,1.11,0,1.11.81,0,.24,0,.49-.64,1.83l-.38.74a.29.29,0,0,0,0,.14.27.27,0,0,0,.1.18,3.88,3.88,0,0,1,.81,1A3.35,3.35,0,0,1,93.64,7a1.72,1.72,0,0,1-1,1.69,2.62,2.62,0,0,1-.89.09c-.47,0-.76,0-.76-.53,0-.33.12-.48.42-.48h.44c.39,0,.67-.37.67-1a2.75,2.75,0,0,0-.67-1.66c-.55-.62-.58-.65-.58-.87s0-.27.36-.88a8,8,0,0,0,.64-1.56c0-.18-.19-.18-.28-.18h-.91a.25.25,0,0,0-.28.28Z"/><path class="cls-1" d="M99.23,1.6A10.44,10.44,0,0,1,96.3,3.91a2.25,2.25,0,0,1-1,.38.59.59,0,0,1-.53-.63c0-.31.17-.4.4-.49a8.21,8.21,0,0,0,2.57-1.6A15.69,15.69,0,0,1,98.92.48a1.05,1.05,0,0,1,.59-.17c.44,0,.56.12,1.07.61a8.84,8.84,0,0,0,3.28,2.25.49.49,0,0,1,.39.49.6.6,0,0,1-.54.63,7.72,7.72,0,0,1-2.77-1.61c-.61-.52-1.15-1.1-1.17-1.12s-.17-.18-.25-.18S99.42,1.4,99.23,1.6Zm1,6.78h3.42c.28,0,.52.08.52.5s-.16.51-.52.51H95.44a.45.45,0,0,1-.53-.48c0-.37.16-.53.53-.53h.86V4.89c0-.19,0-.52.49-.52s.56.11.56.52V8.38h1.79v-5c0-.17,0-.52.49-.52s.55.13.55.52V5h2.67a.45.45,0,0,1,.52.47c0,.38-.16.53-.52.53h-2.67Z"/><path class="cls-1" d="M111.7,2.56c.77,0,1.12.26,1.12,1.11v3c0,.84-.34,1.12-1.12,1.12h-3c-.75,0-1.11-.25-1.11-1.12v-3c0-.86.35-1.11,1.11-1.11h1V1.68H106c-.16,0-.52,0-.52-.44s.11-.51.52-.51h8.45c.15,0,.51,0,.51.45s-.11.5-.51.5H110.7v.88Zm2.84,5.79c0,.86-.34,1.16-1.17,1.16h-6.29c-.81,0-1.17-.28-1.17-1.16V3c0-.19,0-.51.46-.51s.54.1.54.51V8.2a.34.34,0,0,0,.39.39h5.83a.35.35,0,0,0,.4-.39V3c0-.2,0-.51.46-.51s.55.1.55.51Zm-4.79-3.64V3.4h-.88a.32.32,0,0,0-.36.36v1Zm0,.84h-1.24v1a.32.32,0,0,0,.36.36h.88Zm1-.84h1.22v-1a.31.31,0,0,0-.36-.36h-.86Zm0,.84V6.94h.86a.31.31,0,0,0,.36-.36v-1Z"/><path class="cls-1" d="M118,5.52c-.63.06-1,.09-1.12.09s-.47,0-.47-.5.25-.43.74-.45l.5-.69a8.61,8.61,0,0,0-.84-.92c-.32-.29-.43-.38-.43-.6a.5.5,0,0,1,.45-.5.49.49,0,0,1,.29.11A11.81,11.81,0,0,0,117.69,1c.21-.41.27-.54.52-.54s.56.13.56.44c0,.13,0,.24-.28.67a13.39,13.39,0,0,1-.73,1.16c.13.14.31.34.4.46A11.62,11.62,0,0,0,118.87,2c.41-.75.45-.82.69-.82a.48.48,0,0,1,.49.41,4.28,4.28,0,0,1-.52,1A23.09,23.09,0,0,1,118,4.62c.39,0,.69,0,1.09-.08A3.28,3.28,0,0,1,119,4a.39.39,0,0,1,.41-.35c.24,0,.3.14.46.54a7.2,7.2,0,0,1,.44,1.37c0,.3-.32.39-.48.39s-.29-.14-.4-.54l-.58.07V9.33c0,.13,0,.46-.42.46s-.42-.33-.42-.46Zm-.41.74a.51.51,0,0,1,.07.29,13,13,0,0,1-.29,2c-.1.38-.14.55-.44.55s-.47-.08-.47-.38c0-.13.16-.69.18-.81a12.89,12.89,0,0,0,.2-1.39c0-.19,0-.43.42-.43A.49.49,0,0,1,117.55,6.26Zm2.73.68c0-.22.09-.42.4-.42,0,0,.48,0,.48.38a8,8,0,0,1-.34,1.64c-.19.63-.29.75-.56.75s-.53-.12-.53-.43c0-.11,0-.16.24-.71a.46.46,0,0,1-.34.14c-.32,0-.35-.19-.37-.4s-.17-1.41-.17-1.43c0-.31.32-.33.39-.33.31,0,.34.16.46.9A4.52,4.52,0,0,1,120,8,6.76,6.76,0,0,0,120.28,6.94Zm.86-4.45c-.39.41-.56.55-.75.55a.56.56,0,0,1-.53-.54c0-.16.09-.26.3-.44A8.12,8.12,0,0,0,121.33.79c.18-.26.29-.34.47-.34a.51.51,0,0,1,.5.48A5.73,5.73,0,0,1,121.14,2.49Zm-.42,2.9a.43.43,0,0,1-.48-.48c0-.43.29-.43.67-.44a19.64,19.64,0,0,0,.92-2c.06-.16.15-.37.44-.37s.55.12.55.41a12.54,12.54,0,0,1-.89,2c1,0,1.11,0,2-.09-.23-.33-.29-.41-.41-.57s-.25-.31-.25-.45a.5.5,0,0,1,.5-.43.52.52,0,0,1,.38.21c.15.16.63.76.85,1.08a2.74,2.74,0,0,1,.57,1,.52.52,0,0,1-.53.48c-.25,0-.3-.09-.58-.55-.8.09-1.6.15-2.4.19a6.14,6.14,0,0,1,1,.46c.59.34.69.47.69.68a.5.5,0,0,1-.45.49.61.61,0,0,1-.36-.14,9.27,9.27,0,0,0-1-.61c-.21-.1-.38-.19-.38-.44a.46.46,0,0,1,.31-.43Zm1.67,3c0,.29.14.29.53.29s.45-.05.51-.43.1-.54.41-.54.46.32.46.45a2.71,2.71,0,0,1-.23,1.12c-.2.34-.57.34-1.07.34-1.13,0-1.49,0-1.49-1V7.11a.39.39,0,0,1,.43-.46c.39,0,.45.24.45.46Zm2-7.64A9.82,9.82,0,0,0,125.44,2c.29.27.34.36.34.51a.57.57,0,0,1-.53.54c-.29,0-.8-.56-1.09-.89s-.81-1-.81-1.24.33-.47.55-.47S124.17.52,124.38.78Zm1,6.5a6.59,6.59,0,0,1,.43,1.46c0,.45-.49.45-.54.45-.35,0-.38-.15-.53-.77a8.63,8.63,0,0,0-.43-1.27,1,1,0,0,1-.09-.35c0-.34.4-.41.49-.41C125,6.39,125.06,6.5,125.36,7.28Z"/><path class="cls-1" d="M135.9,2.05a4.49,4.49,0,0,1-1.13,1.7,6.55,6.55,0,0,0,1.43.55c.12,0,.36.1.36.4s-.12.58-.43.58A5.48,5.48,0,0,1,134,4.37a5.75,5.75,0,0,1-2.12.89.38.38,0,0,1-.38-.28,6.28,6.28,0,0,1-.38,1c-.12.27-.21.41-.44.41a.42.42,0,0,1-.44-.39c0-.1,0-.16.26-.63a2.39,2.39,0,0,0,.24-.62c0-.09-.07-.12-.19-.12H130V8.67c0,.86-.28,1-1.36,1-.37,0-.79,0-.79-.54a.44.44,0,0,1,.43-.49l.5,0c.25,0,.3-.14.3-.34V6a10.84,10.84,0,0,1-.88,1.55c-.28.42-.39.54-.59.54a.54.54,0,0,1-.47-.55.58.58,0,0,1,.19-.41A10.27,10.27,0,0,0,129,4.59h-1.28c-.32,0-.46-.13-.46-.5a.4.4,0,0,1,.46-.45h1.74a7.37,7.37,0,0,0-.8-.68c-.46-.34-.52-.39-.52-.56a.48.48,0,0,1,.47-.46.51.51,0,0,1,.32.12l.59.43a3.85,3.85,0,0,0,.71-.8c0-.1-.1-.1-.15-.1h-2c-.38,0-.46-.21-.46-.47s.23-.43.46-.43h2.49c.27,0,.81,0,.81.62,0,.37-.15.74-1.2,1.71.36.35.43.44.4.62h.2c.38,0,.93,0,.9.77a.82.82,0,0,1,.21-.08,5.91,5.91,0,0,0,1.41-.55,5.16,5.16,0,0,1-.86-1c-.2.23-.45.51-.66.51a.54.54,0,0,1-.5-.49c0-.17,0-.21.47-.69A6.45,6.45,0,0,0,132.5.93c.29-.53.33-.6.61-.6a.47.47,0,0,1,.51.41.91.91,0,0,1-.12.38h2.59c.34,0,.45.14.45.49a.39.39,0,0,1-.45.44Zm-4.22,4.76a.4.4,0,0,1-.47-.45.4.4,0,0,1,.47-.46H133a3,3,0,0,1,.1-.76.43.43,0,0,1,.42-.2c.48,0,.48.27.48.44s0,.26,0,.52h1.18c.37,0,1,0,1,.8a8.69,8.69,0,0,1-.42,2.51c-.26.46-.69.47-1.48.47-.38,0-.81,0-.81-.52s.35-.49.49-.49.58,0,.67,0,.3-.13.37-.4a7.41,7.41,0,0,0,.16-1.19c0-.2,0-.29-.34-.29h-.95a4,4,0,0,1-1.68,2.52,1.74,1.74,0,0,1-.72.36.55.55,0,0,1-.53-.57c0-.19.1-.28.29-.4a3,3,0,0,0,1.64-1.91Zm1.26-4.76-.05.08A4.71,4.71,0,0,0,134,3.26a3.22,3.22,0,0,0,1-1.21Z"/><path class="cls-1" d="M141.66,2.46c-.34,0-.39.08-.63.46-.52.83-1.71,2.25-2.21,2.25a.63.63,0,0,1-.59-.59c0-.19.06-.24.58-.73a7.52,7.52,0,0,0,1.52-1.95c.3-.5.59-.5,1.18-.5h2.38a1.09,1.09,0,0,1,1.1.53,1.72,1.72,0,0,1,.5,1.07,8.59,8.59,0,0,1-2.22,4.36A7.18,7.18,0,0,1,140,9.44a.62.62,0,0,1-.59-.61c0-.27.05-.29.9-.76a7.7,7.7,0,0,0,3.51-3.57,6.35,6.35,0,0,0,.56-1.79c0-.25-.21-.25-.38-.25Zm4.66-.38a.42.42,0,0,1-.41.41c-.22,0-.28-.12-.43-.42A6.37,6.37,0,0,0,144.77,1c-.11-.14-.11-.21-.11-.24a.42.42,0,0,1,.51-.4A4.09,4.09,0,0,1,146.32,2.08Zm1.32-.32a.42.42,0,0,1-.41.41c-.22,0-.27-.1-.43-.44a6.65,6.65,0,0,0-.67-1.09C146,.49,146,.42,146,.4a.41.41,0,0,1,.43-.4h.1A4.32,4.32,0,0,1,147.64,1.76Z"/><path class="cls-1" d="M150.05,1.51c0-.22,0-.53.57-.53.37,0,.58.13.58.53V3.42a8.52,8.52,0,0,1-1.07,4.68c-.11.19-.73,1.21-1.23,1.21a.61.61,0,0,1-.61-.57c0-.18,0-.24.47-.75a7.06,7.06,0,0,0,1.29-4.48Zm3.56,5.89c0,.16,0,.27.12.27A6.36,6.36,0,0,0,156,5.72c.28-.37.39-.51.61-.51a.59.59,0,0,1,.58.57c0,.62-2.65,3.26-3.91,3.26a.77.77,0,0,1-.82-.9V1.36c0-.25.07-.53.56-.53s.57.13.57.53Z"/><path class="cls-1" d="M167,4.54a.5.5,0,0,1,.58.55.5.5,0,0,1-.58.53h-7.53a.5.5,0,0,1-.58-.54.49.49,0,0,1,.58-.54Z"/><path class="cls-1" d="M168.25,2.71c-.18,0-.56,0-.56-.53a.49.49,0,0,1,.56-.54h5.5a1.81,1.81,0,0,1,.5.05.9.9,0,0,1,0-.29,1.38,1.38,0,1,1,1.37,1.37,1,1,0,0,1-.36-.06,1.12,1.12,0,0,1,.06.35,7.5,7.5,0,0,1-2.48,4.68,6.53,6.53,0,0,1-2.63,1.55.57.57,0,0,1-.56-.58c0-.29.13-.35.57-.59a7,7,0,0,0,3.63-3.8A5,5,0,0,0,174.14,3c0-.29-.18-.29-.41-.29Zm6.6-1.32a.74.74,0,1,0,.74-.74A.74.74,0,0,0,174.85,1.39Z"/><path class="cls-1" d="M21.71,25.08A10.6,10.6,0,0,1,23,19.25a5.36,5.36,0,0,1,8.92,0,11.29,11.29,0,0,1,1.29,5.81A10.86,10.86,0,0,1,32,30.87a5.16,5.16,0,0,1-4.48,2.42C21.71,33.29,21.71,26.45,21.71,25.08Zm8.2,0c0-3.26-.72-5.15-2.43-5.15-1.87,0-2.44,2.22-2.44,5.15,0,3.18.67,5.14,2.44,5.14S29.91,28,29.91,25.08Z"/><path class="cls-1" d="M45.71,29.91a1.36,1.36,0,0,1,1.57,1.51c0,1-.47,1.55-1.57,1.55h-7.6c-1.32,0-2.71,0-2.71-1.76,0-1.14.47-1.52,1.9-2.66,1.12-.88,2.87-2.45,4-3.57s1.86-2,1.86-3a1.94,1.94,0,0,0-1.92-2,3.8,3.8,0,0,0-2.32.87c-.74.57-.86.67-1.29.67A1.61,1.61,0,0,1,36,19.85c0-1.09,2.27-3,5.22-3s5.26,1.94,5.26,4.95c0,2.49-1.45,4-6.24,8.09Z"/><path class="cls-1" d="M59.8,27a1.31,1.31,0,0,1,1.49,1.46,1.3,1.3,0,0,1-1.49,1.49h-.55v1.85c0,.7-.19,1.53-1.61,1.53-1.25,0-1.67-.55-1.67-1.52V29.91h-4.4c-.8,0-2.51,0-2.51-1.71a3.81,3.81,0,0,1,1-2.26l5.17-7.52c1-1.39,1.73-1.55,2.29-1.55,1.73,0,1.73,1.41,1.73,1.94V27ZM56,27V21.84L52.52,27Z"/><path class="cls-1" d="M65.58,28.59A1.35,1.35,0,0,1,64,27.1c0-1.06.53-1.51,1.55-1.51h3a1.36,1.36,0,0,1,1.55,1.49c0,1.1-.57,1.51-1.55,1.51Z"/><path class="cls-1" d="M73.44,19.91c0-1.15.18-2.73,2.61-2.73h5.36A1.37,1.37,0,0,1,83,18.7c0,1.08-.53,1.55-1.57,1.55h-4.3c-.43,0-.61.12-.61.61v2a6.82,6.82,0,0,1,2-.33A5.15,5.15,0,0,1,84,27.79c0,2.89-2,5.5-6.37,5.5a11,11,0,0,1-4-.73,1.33,1.33,0,0,1-1-1.35A1.51,1.51,0,0,1,74,29.58a3.65,3.65,0,0,1,1.18.29,7.33,7.33,0,0,0,2.3.35c.47,0,3.2,0,3.2-2.39a2.21,2.21,0,0,0-2.46-2.22,2.87,2.87,0,0,0-2,.76,2.09,2.09,0,0,1-1.24.4c-1.51,0-1.51-1.12-1.51-1.69Z"/><path class="cls-1" d="M96.65,29.91a1.36,1.36,0,0,1,1.57,1.51c0,1-.47,1.55-1.57,1.55h-7.6c-1.32,0-2.71,0-2.71-1.76,0-1.14.47-1.52,1.9-2.66,1.12-.88,2.87-2.45,4-3.57s1.87-2,1.87-3a1.94,1.94,0,0,0-1.93-2,3.82,3.82,0,0,0-2.32.87c-.74.57-.86.67-1.29.67A1.62,1.62,0,0,1,87,19.85c0-1.09,2.28-3,5.22-3s5.26,1.94,5.26,4.95c0,2.49-1.45,4-6.24,8.09Z"/><path class="cls-1" d="M105.55,26.06a1.26,1.26,0,0,1-1.4-1.35c0-1.4.94-1.4,1.67-1.4,1.34,0,2.36-.59,2.36-1.75,0-1.33-1.38-1.63-2-1.63a5.13,5.13,0,0,0-2.67.77,1.64,1.64,0,0,1-.8.25,1.52,1.52,0,0,1-1.4-1.55A1.72,1.72,0,0,1,102.38,18a7.26,7.26,0,0,1,3.91-1.1c3.3,0,5.21,2,5.21,4.42a3.39,3.39,0,0,1-1.77,3.08,4.2,4.2,0,0,1,2.65,4c0,2.31-1.75,4.91-6.54,4.91a9.78,9.78,0,0,1-4-.75,1.37,1.37,0,0,1-1-1.31c0-.69.44-1.67,1.36-1.67a3.85,3.85,0,0,1,1.16.29,7.62,7.62,0,0,0,2.47.37c2,0,3.24-.8,3.24-2.24,0-.86-.63-1.92-3-1.92Z"/><path class="cls-1" d="M117,28.59a1.35,1.35,0,0,1-1.55-1.49c0-1.06.53-1.51,1.55-1.51h3a1.36,1.36,0,0,1,1.55,1.49c0,1.1-.57,1.51-1.55,1.51Z"/><path class="cls-1" d="M128.06,26.06a1.25,1.25,0,0,1-1.39-1.35c0-1.4.94-1.4,1.67-1.4,1.33,0,2.36-.59,2.36-1.75,0-1.33-1.38-1.63-2-1.63a5.13,5.13,0,0,0-2.67.77,1.68,1.68,0,0,1-.8.25,1.52,1.52,0,0,1-1.4-1.55A1.72,1.72,0,0,1,124.9,18a7.23,7.23,0,0,1,3.91-1.1c3.3,0,5.2,2,5.2,4.42a3.38,3.38,0,0,1-1.76,3.08,4.2,4.2,0,0,1,2.65,4c0,2.31-1.75,4.91-6.54,4.91a9.74,9.74,0,0,1-4-.75,1.37,1.37,0,0,1-1-1.31c0-.69.43-1.67,1.36-1.67a3.76,3.76,0,0,1,1.15.29,7.69,7.69,0,0,0,2.48.37c2,0,3.24-.8,3.24-2.24,0-.86-.63-1.92-3-1.92Z"/><path class="cls-1" d="M142.44,27.79a5,5,0,0,1-5.18-5.24A5.54,5.54,0,0,1,143,16.87c1.57,0,6,.67,6,7.38,0,5.23-2.63,9-7.6,9-1.57,0-2.67-.28-2.67-1.61a1.37,1.37,0,0,1,1.37-1.53c.2,0,1.06.07,1.24.07a3.74,3.74,0,0,0,3.87-3.35A3.84,3.84,0,0,1,142.44,27.79Zm-1.85-5.3A2.35,2.35,0,0,0,143,24.92a2.47,2.47,0,0,0,2.57-2.45A2.5,2.5,0,0,0,143,19.93,2.46,2.46,0,0,0,140.59,22.49Z"/><path class="cls-1" d="M154.39,21.37a1.87,1.87,0,0,1-1,.41c-.74,0-1.37-.94-1.37-1.59s.43-.83.84-1.12l2.4-1.63a2.74,2.74,0,0,1,1.59-.57,1.66,1.66,0,0,1,1.79,2V31.74c0,.66-.18,1.55-1.65,1.55s-1.69-.65-1.69-1.55v-11Z"/><path class="cls-1" d="M170,22.31a5.18,5.18,0,0,1,5.29,5.38,5.48,5.48,0,0,1-5.64,5.6c-3,0-6.09-2.05-6.09-7.15s3.16-9.27,7.72-9.27a1.45,1.45,0,0,1,1.65,1.55c0,1.42-.71,1.47-1.67,1.53a4.12,4.12,0,0,0-3.91,3.28A3.65,3.65,0,0,1,170,22.31Zm-.41,2.93a2.45,2.45,0,0,0-2.63,2.33,2.57,2.57,0,0,0,2.61,2.65,2.34,2.34,0,0,0,2.38-2.55A2.21,2.21,0,0,0,169.54,25.24Z"/><path class="cls-2" d="M17.72,25.2a8.51,8.51,0,1,1-8.5-8.51A8.5,8.5,0,0,1,17.72,25.2Z"/><path class="cls-3" d="M7.75,23.41l1.07-.67c.14-.08.14-.3,0-.51L7.7,20.33c-.16-.26-.33-.53-.58-.39l-1.06.64c-.63.37-1.47,2.5.73,6.19s4.47,4,5.1,3.6L13,29.73c.24-.14.09-.42-.07-.69l-1.13-1.9c-.13-.21-.32-.31-.46-.23s-.58.32-1.09.63-1.08-.47-1.83-1.72S7.23,23.71,7.75,23.41Z"/></g></g></svg>