<svg xmlns="http://www.w3.org/2000/svg" width="330.67" height="291.4" viewBox="0 0 330.67 291.4"><defs><style>.cls-1{isolation:isolate;}.cls-2{opacity:0.3;mix-blend-mode:multiply;}.cls-3{fill:#00adb6;}.cls-4{fill:#fff;}.cls-5{fill:#dcdddd;}.cls-6{fill:#9e9e9f;}</style></defs><g class="cls-1"><g id="レイヤー_2" data-name="レイヤー 2"><g id="レイヤー_1-2" data-name="レイヤー 1"><g class="cls-2"><rect class="cls-3" x="5.67" y="5.67" width="325" height="40"/><rect class="cls-3" x="5.67" y="45.67" width="325" height="245.73"/></g><rect class="cls-3" width="325" height="40"/><rect class="cls-4" y="40" width="325" height="245.73"/><rect class="cls-5" x="19.09" y="56.57" width="286.81" height="212.6"/><path class="cls-6" d="M130.62,171.93a1.79,1.79,0,0,1,1.95,2,1.9,1.9,0,0,1-2,2.08H119.4c-4.94,0-6.16-1.74-6.92-2.8a23.17,23.17,0,0,1-1.88,2.29,2.22,2.22,0,0,1-1.68.93,2.49,2.49,0,0,1-2.28-2.58c0-1,.46-1.4,1.73-2.38.39-.31,1-.84,1.8-1.48v-5.13c0-.19,0-.73-.49-.73h-1.09c-.65,0-1.93-.05-1.93-2s1-2.07,1.93-2.07h2.17c2.8,0,3.37.53,3.37,3.47v5.21c0,3.22,3.51,3.22,4.59,3.22Zm-17.57-19.21c1.68,1.57,1.84,2,1.84,2.66a2.35,2.35,0,0,1-2.2,2.35c-.68,0-.78-.11-2-1.32-.68-.67-1.87-1.73-2.85-2.57a1.55,1.55,0,0,1-.63-1.26,2.33,2.33,0,0,1,2.07-2.3C110.47,150.28,111.91,151.65,113.05,152.72Zm17.46,4.56c.73,0,2,.14,2,1.79,0,1.35-.38,2.1-2,2.1h-2.06v8.38c0,1.09-.33,2-1.93,2s-2.26-.42-2.26-2v-8.38h-3.34v.56a18.64,18.64,0,0,1-1.19,6.86c-1,2.5-1.77,2.5-2.28,2.5-.71,0-2.56-.51-2.56-2.16a2.55,2.55,0,0,1,.55-1.46c.65-1.09,1.41-2.63,1.41-6.55v-6.13c0-3.33,1.76-3.42,3.48-3.5a41.11,41.11,0,0,0,6.46-.78,11.21,11.21,0,0,1,2.69-.51,1.83,1.83,0,0,1,1.87,2c0,1.59-.95,1.76-3.18,2.1-2.55.36-3.15.47-6.51.73-.74.05-.74.39-.74,1.09v1.34Z"/><path class="cls-6" d="M158.24,171.9c0,3-1.3,3.83-3.69,3.83H140.89c-2.42,0-3.73-.86-3.73-3.83V154.85c0-3,1.31-3.81,3.73-3.81h13.66c2.36,0,3.69.81,3.69,3.81Zm-4.34-10.75v-5a.86.86,0,0,0-.93-.95H142.41a.84.84,0,0,0-.9.95v5Zm-12.39,4.06v5.43a.84.84,0,0,0,.9,1H153a.86.86,0,0,0,.93-1v-5.43Z"/><path class="cls-6" d="M171,157.9a33.79,33.79,0,0,1-4.13,4.93,2.33,2.33,0,0,1-1.49.7,2.82,2.82,0,0,1-2.56-2.72c0-.78.14-.9,2.67-3.36a23.12,23.12,0,0,0,4.23-6c.65-1.23,1-1.45,1.8-1.45,1.22,0,2.49.78,2.49,1.9S171.66,156.89,171,157.9Zm5.4,17.11c-1.82.14-9.88.58-10.67.58s-2.06,0-2.06-2.23c0-2.05,1.25-2.05,3.36-2.11a100.63,100.63,0,0,0,4.65-11.17c.49-1.37.87-1.76,2-1.76s2.53.42,2.53,1.85a12.06,12.06,0,0,1-1.14,3.38,70.47,70.47,0,0,1-3.5,7.59c3-.11,6.84-.36,9.31-.61-.49-.79-.65-1-2.28-3.39a2.21,2.21,0,0,1,1.9-3.64,1.76,1.76,0,0,1,1.52.73,44.45,44.45,0,0,1,3.61,5.15c1.88,3.13,2.31,3.86,2.31,4.9,0,1.37-1.46,2.21-2.77,2.21s-1.46-.56-2.22-2.16C181.49,174.53,179.56,174.78,176.35,175Zm3.45-25c1,0,1.36.44,1.85,1.39a32.37,32.37,0,0,0,4.48,6.36c.36.34,2,1.9,2.09,2.07a2,2,0,0,1,.41,1.21,2.7,2.7,0,0,1-2.36,2.6c-.76,0-1.58-.48-3.53-2.8-3.59-4.31-5.25-8.06-5.25-8.87C177.49,150.51,179,150,179.8,150Z"/><path class="cls-6" d="M196.27,174.78a1.58,1.58,0,0,1-1.77,1.82c-1.49,0-2-.59-2-1.82V154.15c0-2.61,1.2-3.34,3.23-3.34h4.95c2.14,0,3.23.82,3.23,3.34v3.33c0,2.52-1.09,3.33-3.23,3.33h-4.4Zm4-20.16V154a.48.48,0,0,0-.52-.53h-3a.48.48,0,0,0-.51.53v.59Zm0,2.38h-4v1.12h3.5a.46.46,0,0,0,.52-.5Zm10.29,9.8c.49,0,1.69,0,1.69,1.71s-1,1.71-1.69,1.71h-1.06v4.2a1.52,1.52,0,0,1-1.71,1.76c-1.63,0-1.93-.73-1.93-1.76v-4.2h-2.41c-.47,3.53-2.45,5.88-3.67,5.88a2.2,2.2,0,0,1-2.15-2.07c0-.56.27-.84.71-1.35a5,5,0,0,0,1.3-2.46h-1.11a1.49,1.49,0,0,1-1.71-1.68c0-1.71,1.19-1.74,1.71-1.74h1.36V165h-1a1.47,1.47,0,0,1-1.6-1.65,1.5,1.5,0,0,1,1.71-1.68h11.16a1.49,1.49,0,0,1,1.72,1.65,1.47,1.47,0,0,1-1.53,1.68h-.84v1.79Zm-4.7,0V165h-2.25v1.79Zm2.56-6c-2,0-3.21-.67-3.21-3.33v-3.33c0-2.64,1.2-3.34,3.21-3.34h5c2.09,0,3.23.76,3.23,3.34v18.64c0,3-.49,3.67-4.32,3.67-1.11,0-2.77,0-2.77-2.21,0-1.9,1.23-2,1.74-2h1c.52-.06.57-.25.57-.84V160.81Zm.54-6.19h4V154a.48.48,0,0,0-.51-.53H209.5a.48.48,0,0,0-.52.53Zm0,2.38v.62a.45.45,0,0,0,.52.5h3.44V157Z"/></g></g></g></svg>